<?xml version="1.0" encoding="utf-8"?>
<!-- Generator: Adobe Illustrator 28.1.0, SVG Export Plug-In . SVG Version: 6.00 Build 0)  -->
<svg version="1.1" id="Layer_1" xmlns="http://www.w3.org/2000/svg" xmlns:xlink="http://www.w3.org/1999/xlink" x="0px" y="0px"
	 viewBox="0 0 448 403" style="enable-background:new 0 0 448 403;" xml:space="preserve">
<style type="text/css">
	.st0{fill:#FFFFFF;}
</style>
<path class="st0" d="M314.7,386.3c10.8,10.8,28.3,10.8,39,0l82.7-82.7c10.8-10.8,10.8-28.3,0-39c-10.8-10.8-28.3-10.8-39,0
	l-35.7,35.7V36.1c0-15.2-12.3-27.6-27.6-27.6c-15.2,0-27.6,12.3-27.6,27.6v264.2L271,264.6c-10.8-10.8-28.3-10.8-39,0
	c-10.8,10.8-10.8,28.3,0,39L314.7,386.3L314.7,386.3z M11.6,99.3c-10.8,10.8-10.8,28.3,0,39s28.3,10.8,39,0l35.6-35.6v264.2
	c0,15.2,12.3,27.6,27.6,27.6s27.6-12.3,27.6-27.6V102.7l35.7,35.7c10.8,10.8,28.3,10.8,39,0s10.8-28.3,0-39l-82.7-82.7
	c-10.8-10.8-28.3-10.8-39,0L11.6,99.3L11.6,99.3z"/>
</svg>
