<?xml version="1.0" encoding="utf-8"?>
<!-- Generator: Adobe Illustrator 28.1.0, SVG Export Plug-In . SVG Version: 6.00 Build 0)  -->
<svg version="1.1" id="Layer_1" xmlns="http://www.w3.org/2000/svg" xmlns:xlink="http://www.w3.org/1999/xlink" x="0px" y="0px"
	 viewBox="0 0 800 800" style="enable-background:new 0 0 800 800;" xml:space="preserve">
<style type="text/css">
	.st0{fill:none;stroke:#5C5C7B;stroke-width:40;stroke-linecap:round;stroke-linejoin:round;stroke-miterlimit:133.3333;}
</style>
<path class="st0" d="M300,433.3l100,100 M400,533.3l100-100 M400,533.3V266.7 M240,666.7h320c37.3,0,56,0,70.3-7.3
	c12.5-6.4,22.7-16.6,29.1-29.1c7.3-14.3,7.3-32.9,7.3-70.3V240c0-37.3,0-56-7.3-70.3c-6.4-12.5-16.6-22.7-29.1-29.1
	c-14.3-7.3-32.9-7.3-70.3-7.3H240c-37.3,0-56,0-70.3,7.3c-12.5,6.4-22.7,16.6-29.1,29.1c-7.3,14.3-7.3,32.9-7.3,70.3v320
	c0,37.3,0,56,7.3,70.3c6.4,12.5,16.6,22.7,29.1,29.1C184,666.7,202.7,666.7,240,666.7z"/>
</svg>
