<svg xmlns="http://www.w3.org/2000/svg" fill="none" viewBox="0 4.98 33.25 33.25"><circle cx="16.625" cy="21.6003" r="16.625" fill="#35A7BD"></circle><path d="M20.609 32.384C19.121 32.384 17.985 32.056 17.201 31.4C16.433 30.76 15.937 29.984 15.713 29.072C15.521 29.088 15.329 29.104 15.137 29.12C14.945 29.152 14.745 29.168 14.537 29.168C13.129 29.168 11.969 28.832 11.057 28.16C10.145 27.488 9.465 26.6 9.017 25.496C8.585 24.392 8.369 23.2 8.369 21.92C8.369 20.704 8.561 19.488 8.945 18.272C9.329 17.056 9.881 15.944 10.601 14.936C11.337 13.928 12.233 13.12 13.289 12.512C14.345 11.888 15.553 11.576 16.913 11.576C17.969 11.576 18.881 11.776 19.649 12.176C20.433 12.56 21.073 13.096 21.569 13.784C22.081 14.456 22.457 15.224 22.697 16.088C22.953 16.952 23.081 17.864 23.081 18.824C23.081 20.088 22.873 21.36 22.457 22.64C22.057 23.904 21.457 25.056 20.657 26.096C19.857 27.12 18.881 27.904 17.729 28.448C18.257 28.56 18.833 28.648 19.457 28.712C20.081 28.76 20.785 28.784 21.569 28.784C21.841 28.784 22.121 28.784 22.409 28.784C22.713 28.784 23.017 28.776 23.321 28.76L23.417 28.952C23.161 29.736 22.809 30.416 22.361 30.992C21.913 31.568 21.329 32.032 20.609 32.384ZM15.497 26.12C16.041 26.12 16.513 25.928 16.913 25.544C17.329 25.16 17.673 24.656 17.945 24.032C18.233 23.392 18.449 22.688 18.593 21.92C18.737 21.152 18.809 20.376 18.809 19.592C18.809 18.712 18.721 17.896 18.545 17.144C18.369 16.392 18.097 15.784 17.729 15.32C17.377 14.84 16.921 14.6 16.361 14.6C15.753 14.6 15.217 14.792 14.753 15.176C14.305 15.544 13.921 16.04 13.601 16.664C13.297 17.288 13.065 17.984 12.905 18.752C12.745 19.52 12.665 20.288 12.665 21.056C12.665 21.936 12.769 22.76 12.977 23.528C13.185 24.296 13.497 24.92 13.913 25.4C14.345 25.88 14.873 26.12 15.497 26.12Z" fill="white"></path></svg>