<svg width="164" height="33" viewBox="0 0 164 33" fill="none" xmlns="http://www.w3.org/2000/svg">
<path d="M18.476 32.076C16.244 32.076 14.54 31.584 13.364 30.6C12.212 29.64 11.468 28.476 11.132 27.108C10.844 27.132 10.556 27.156 10.268 27.18C9.98 27.228 9.68 27.252 9.368 27.252C7.256 27.252 5.516 26.748 4.148 25.74C2.78 24.732 1.76 23.4 1.088 21.744C0.44 20.088 0.116 18.3 0.116 16.38C0.116 14.556 0.404 12.732 0.98 10.908C1.556 9.084 2.384 7.416 3.464 5.904C4.568 4.392 5.912 3.18 7.496 2.268C9.08 1.332 10.892 0.864 12.932 0.864C14.516 0.864 15.884 1.164 17.036 1.764C18.212 2.34 19.172 3.144 19.916 4.176C20.684 5.184 21.248 6.336 21.608 7.632C21.992 8.928 22.184 10.296 22.184 11.736C22.184 13.632 21.872 15.54 21.248 17.46C20.648 19.356 19.748 21.084 18.548 22.644C17.348 24.18 15.884 25.356 14.156 26.172C14.948 26.34 15.812 26.472 16.748 26.568C17.684 26.64 18.74 26.676 19.916 26.676C20.324 26.676 20.744 26.676 21.176 26.676C21.632 26.676 22.088 26.664 22.544 26.64L22.688 26.928C22.304 28.104 21.776 29.124 21.104 29.988C20.432 30.852 19.556 31.548 18.476 32.076ZM10.808 22.68C11.624 22.68 12.332 22.392 12.932 21.816C13.556 21.24 14.072 20.484 14.48 19.548C14.912 18.588 15.236 17.532 15.452 16.38C15.668 15.228 15.776 14.064 15.776 12.888C15.776 11.568 15.644 10.344 15.38 9.216C15.116 8.088 14.708 7.176 14.156 6.48C13.628 5.76 12.944 5.4 12.104 5.4C11.192 5.4 10.388 5.688 9.692 6.264C9.02 6.816 8.444 7.56 7.964 8.496C7.508 9.432 7.16 10.476 6.92 11.628C6.68 12.78 6.56 13.932 6.56 15.084C6.56 16.404 6.716 17.64 7.028 18.792C7.34 19.944 7.808 20.88 8.432 21.6C9.08 22.32 9.872 22.68 10.808 22.68Z" fill="#189AB4"/>
<path d="M28.95 27.144C27.87 27.144 26.958 26.7 26.214 25.812C25.494 24.924 25.134 23.736 25.134 22.248C25.134 21.432 25.23 20.556 25.422 19.62C25.614 18.684 25.806 17.796 25.998 16.956C26.166 16.332 26.298 15.756 26.394 15.228C26.514 14.676 26.574 14.232 26.574 13.896C26.574 13.464 26.478 13.152 26.286 12.96C26.118 12.768 25.914 12.672 25.674 12.672C25.434 12.672 25.194 12.756 24.954 12.924C24.714 13.068 24.522 13.296 24.378 13.608L24.09 13.5C24.09 12.516 24.33 11.676 24.81 10.98C25.29 10.284 25.902 9.756 26.646 9.396C27.39 9.036 28.146 8.856 28.914 8.856C29.538 8.856 30.138 8.988 30.714 9.252C31.29 9.492 31.758 9.876 32.118 10.404C32.502 10.932 32.694 11.592 32.694 12.384C32.694 12.864 32.622 13.44 32.478 14.112C32.358 14.784 32.214 15.48 32.046 16.2C31.878 16.944 31.71 17.7 31.542 18.468C31.398 19.212 31.326 19.872 31.326 20.448C31.326 20.976 31.41 21.408 31.578 21.744C31.746 22.08 31.998 22.248 32.334 22.248C32.958 22.248 33.654 21.672 34.422 20.52C35.214 19.368 35.85 17.82 36.33 15.876C36.426 15.492 36.51 15.084 36.582 14.652C36.654 14.22 36.69 13.776 36.69 13.32C36.69 12.96 36.666 12.6 36.618 12.24C36.57 11.856 36.498 11.472 36.402 11.088V10.836C36.786 10.188 37.278 9.696 37.878 9.36C38.502 9.024 39.126 8.856 39.75 8.856C40.59 8.856 41.346 9.144 42.018 9.72C42.69 10.296 43.026 11.136 43.026 12.24C43.026 12.888 42.906 13.644 42.666 14.508C42.426 15.348 42.162 16.224 41.874 17.136C41.586 18.024 41.322 18.9 41.082 19.764C40.842 20.628 40.722 21.396 40.722 22.068C40.722 23.052 41.07 23.544 41.766 23.544C41.958 23.544 42.186 23.496 42.45 23.4C42.738 23.28 43.002 23.052 43.242 22.716L43.494 22.788C43.494 23.652 43.254 24.42 42.774 25.092C42.318 25.74 41.73 26.244 41.01 26.604C40.29 26.964 39.546 27.144 38.778 27.144C37.794 27.144 36.906 26.784 36.114 26.064C35.346 25.344 34.962 24.168 34.962 22.536V22.464C33.978 24.144 32.958 25.344 31.902 26.064C30.846 26.784 29.862 27.144 28.95 27.144ZM53.1013 27.252C51.3493 27.252 49.8973 26.904 48.7453 26.208C47.5933 25.488 46.7293 24.552 46.1533 23.4C45.5773 22.224 45.2893 20.964 45.2893 19.62C45.2893 18.348 45.5293 17.076 46.0093 15.804C46.5133 14.508 47.2333 13.332 48.1693 12.276C49.1293 11.22 50.2813 10.368 51.6253 9.72C52.9933 9.072 54.5293 8.748 56.2333 8.748C58.3453 8.748 59.8813 9.228 60.8413 10.188C61.8253 11.124 62.3173 12.264 62.3173 13.608C62.3173 14.76 62.0053 15.828 61.3813 16.812C60.7813 17.772 59.9773 18.552 58.9693 19.152C57.9613 19.728 56.8573 20.016 55.6573 20.016C55.0333 20.016 54.3973 19.92 53.7493 19.728C53.1013 19.536 52.4653 19.236 51.8413 18.828C51.9613 20.316 52.3933 21.396 53.1373 22.068C53.8813 22.74 54.7693 23.076 55.8013 23.076C56.5213 23.076 57.2413 22.944 57.9613 22.68C58.6813 22.392 59.3413 22.032 59.9413 21.6C60.5653 21.144 61.0453 20.664 61.3813 20.16L61.6333 20.34C61.6333 21.588 61.3693 22.656 60.8413 23.544C60.3373 24.408 59.6653 25.116 58.8253 25.668C57.9853 26.22 57.0613 26.628 56.0533 26.892C55.0693 27.132 54.0853 27.252 53.1013 27.252ZM53.9293 17.532C54.6973 17.532 55.3213 17.316 55.8013 16.884C56.2813 16.428 56.6413 15.9 56.8813 15.3C57.1213 14.7 57.2413 14.172 57.2413 13.716C57.2413 13.164 57.0853 12.708 56.7733 12.348C56.4613 11.964 56.0293 11.772 55.4773 11.772C55.0453 11.772 54.5653 11.928 54.0373 12.24C53.5333 12.552 53.0773 13.092 52.6693 13.86C52.2613 14.604 51.9973 15.648 51.8773 16.992C52.6453 17.352 53.3293 17.532 53.9293 17.532ZM68.3467 27.144C67.4827 27.144 66.7147 26.796 66.0427 26.1C65.3707 25.38 65.0347 24.372 65.0347 23.076C65.0347 22.452 65.1067 21.744 65.2507 20.952C65.3947 20.16 65.5627 19.356 65.7547 18.54C65.9467 17.7 66.1147 16.92 66.2587 16.2C66.4027 15.456 66.4747 14.844 66.4747 14.364C66.4747 13.86 66.3787 13.464 66.1867 13.176C66.0187 12.864 65.7907 12.708 65.5027 12.708C65.0467 12.708 64.5787 13.02 64.0987 13.644L63.8827 13.5C63.8587 13.116 63.9427 12.66 64.1347 12.132C64.3267 11.604 64.6267 11.1 65.0347 10.62C65.4427 10.116 65.9587 9.696 66.5827 9.36C67.2307 9.024 67.9867 8.856 68.8507 8.856C70.1227 8.856 71.0467 9.228 71.6227 9.972C72.1987 10.692 72.4867 11.568 72.4867 12.6C72.4867 12.768 72.4747 12.948 72.4507 13.14C72.4507 13.308 72.4387 13.476 72.4147 13.644C73.2787 12.084 74.1787 10.896 75.1147 10.08C76.0747 9.24 76.9627 8.82 77.7787 8.82C78.5467 8.82 79.1107 9.12 79.4707 9.72C79.8307 10.32 80.0107 11.04 80.0107 11.88C80.0107 12.648 79.8547 13.428 79.5427 14.22C79.2547 15.012 78.8107 15.672 78.2107 16.2C77.6347 16.704 76.9267 16.944 76.0867 16.92L75.9427 16.848C75.9187 16.224 75.7147 15.732 75.3307 15.372C74.9467 15.012 74.5147 14.832 74.0347 14.832C73.3867 14.832 72.7747 15.156 72.1987 15.804C71.6467 16.452 71.3707 17.388 71.3707 18.612C71.3707 19.356 71.4547 20.16 71.6227 21.024C71.7907 21.888 71.8747 22.62 71.8747 23.22C71.8747 23.94 71.7067 24.6 71.3707 25.2C71.0347 25.8 70.6027 26.28 70.0747 26.64C69.5467 26.976 68.9707 27.144 68.3467 27.144ZM88.0114 27.252C86.2594 27.252 84.8074 26.904 83.6554 26.208C82.5034 25.488 81.6394 24.552 81.0634 23.4C80.4874 22.224 80.1994 20.964 80.1994 19.62C80.1994 18.348 80.4394 17.076 80.9194 15.804C81.4234 14.508 82.1434 13.332 83.0794 12.276C84.0394 11.22 85.1914 10.368 86.5354 9.72C87.9034 9.072 89.4394 8.748 91.1434 8.748C93.2554 8.748 94.7914 9.228 95.7514 10.188C96.7354 11.124 97.2274 12.264 97.2274 13.608C97.2274 14.76 96.9154 15.828 96.2914 16.812C95.6914 17.772 94.8874 18.552 93.8794 19.152C92.8714 19.728 91.7674 20.016 90.5674 20.016C89.9434 20.016 89.3074 19.92 88.6594 19.728C88.0114 19.536 87.3754 19.236 86.7514 18.828C86.8714 20.316 87.3034 21.396 88.0474 22.068C88.7914 22.74 89.6794 23.076 90.7114 23.076C91.4314 23.076 92.1514 22.944 92.8714 22.68C93.5914 22.392 94.2514 22.032 94.8514 21.6C95.4754 21.144 95.9554 20.664 96.2914 20.16L96.5434 20.34C96.5434 21.588 96.2794 22.656 95.7514 23.544C95.2474 24.408 94.5754 25.116 93.7354 25.668C92.8954 26.22 91.9714 26.628 90.9634 26.892C89.9794 27.132 88.9954 27.252 88.0114 27.252ZM88.8394 17.532C89.6074 17.532 90.2314 17.316 90.7114 16.884C91.1914 16.428 91.5514 15.9 91.7914 15.3C92.0314 14.7 92.1514 14.172 92.1514 13.716C92.1514 13.164 91.9954 12.708 91.6834 12.348C91.3714 11.964 90.9394 11.772 90.3874 11.772C89.9554 11.772 89.4754 11.928 88.9474 12.24C88.4434 12.552 87.9874 13.092 87.5794 13.86C87.1714 14.604 86.9074 15.648 86.7874 16.992C87.5554 17.352 88.2394 17.532 88.8394 17.532ZM103.327 27.108C102.439 27.108 101.635 26.76 100.915 26.064C100.195 25.344 99.8352 24.348 99.8352 23.076C99.8352 22.452 99.9192 21.744 100.087 20.952C100.255 20.16 100.435 19.356 100.627 18.54C100.843 17.724 101.035 16.956 101.203 16.236C101.371 15.516 101.455 14.928 101.455 14.472C101.455 13.992 101.359 13.62 101.167 13.356C100.975 13.068 100.723 12.924 100.411 12.924C100.003 12.924 99.5592 13.164 99.0792 13.644L98.8632 13.5C98.8392 13.116 98.9232 12.66 99.1152 12.132C99.3072 11.604 99.5952 11.1 99.9792 10.62C100.387 10.116 100.903 9.696 101.527 9.36C102.151 9.024 102.895 8.856 103.759 8.856C105.031 8.856 105.967 9.228 106.567 9.972C107.191 10.692 107.503 11.58 107.503 12.636C107.503 13.02 107.467 13.392 107.395 13.752C107.899 13.008 108.523 12.264 109.267 11.52C110.011 10.752 110.827 10.116 111.715 9.612C112.627 9.108 113.563 8.856 114.523 8.856C115.651 8.856 116.419 9.216 116.827 9.936C117.235 10.656 117.439 11.556 117.439 12.636C117.439 13.644 117.331 14.724 117.115 15.876C116.899 17.028 116.683 18.144 116.467 19.224C116.251 20.28 116.143 21.168 116.143 21.888C116.143 22.848 116.419 23.328 116.971 23.328C117.259 23.328 117.511 23.244 117.727 23.076C117.943 22.884 118.087 22.704 118.159 22.536L118.411 22.644C118.411 23.532 118.159 24.312 117.655 24.984C117.175 25.656 116.563 26.184 115.819 26.568C115.075 26.928 114.319 27.108 113.551 27.108C112.615 27.108 111.787 26.784 111.067 26.136C110.347 25.488 109.987 24.432 109.987 22.968C109.987 22.104 110.095 21.168 110.311 20.16C110.551 19.152 110.779 18.18 110.995 17.244C111.211 16.308 111.319 15.54 111.319 14.94C111.319 14.58 111.247 14.304 111.103 14.112C110.983 13.896 110.755 13.788 110.419 13.788C109.867 13.788 109.255 14.04 108.583 14.544C107.935 15.048 107.371 15.72 106.891 16.56C106.435 17.4 106.207 18.324 106.207 19.332C106.207 19.98 106.279 20.604 106.423 21.204C106.591 21.804 106.675 22.452 106.675 23.148C106.675 24.444 106.339 25.428 105.667 26.1C104.995 26.772 104.215 27.108 103.327 27.108ZM125.497 27.144C124.729 27.144 123.997 26.976 123.301 26.64C122.629 26.28 122.077 25.728 121.645 24.984C121.237 24.24 121.033 23.292 121.033 22.14C121.033 21.516 121.093 20.7 121.213 19.692C121.333 18.684 121.489 17.58 121.681 16.38C121.897 15.18 122.113 13.98 122.329 12.78C121.849 12.804 121.381 12.852 120.925 12.924C120.493 12.996 120.061 13.08 119.629 13.176L119.557 12.924C120.037 12.348 120.541 11.856 121.069 11.448C121.597 11.04 122.149 10.704 122.725 10.44C123.037 8.856 123.301 7.488 123.517 6.336C123.733 5.16 123.841 4.464 123.841 4.248C123.841 3.84 124.153 3.504 124.777 3.24C125.425 2.976 126.145 2.844 126.937 2.844C127.633 2.844 128.281 2.976 128.881 3.24C129.505 3.504 129.925 3.948 130.141 4.572C129.997 4.716 129.793 5.256 129.529 6.192C129.265 7.104 128.989 8.22 128.701 9.54C129.157 9.564 129.625 9.588 130.105 9.612C130.585 9.636 131.077 9.672 131.581 9.72C131.629 9.864 131.665 10.02 131.689 10.188C131.713 10.356 131.725 10.536 131.725 10.728C131.725 11.088 131.665 11.484 131.545 11.916C131.449 12.324 131.329 12.696 131.185 13.032C130.609 12.984 130.069 12.936 129.565 12.888C129.061 12.816 128.569 12.768 128.089 12.744C127.897 13.776 127.717 14.808 127.549 15.84C127.405 16.872 127.285 17.808 127.189 18.648C127.117 19.488 127.081 20.148 127.081 20.628C127.081 21.636 127.261 22.308 127.621 22.644C128.005 22.98 128.461 23.148 128.989 23.148C129.469 23.148 129.901 23.052 130.285 22.86C130.669 22.668 130.945 22.44 131.113 22.176L131.473 22.284C131.329 23.268 130.945 24.132 130.321 24.876C129.697 25.596 128.953 26.16 128.089 26.568C127.225 26.952 126.361 27.144 125.497 27.144ZM139.844 7.74C138.884 7.74 138.092 7.452 137.468 6.876C136.868 6.276 136.568 5.532 136.568 4.644C136.568 3.684 136.928 2.856 137.648 2.16C138.368 1.464 139.244 1.116 140.276 1.116C141.236 1.116 142.016 1.416 142.616 2.016C143.24 2.616 143.552 3.36 143.552 4.248C143.552 5.208 143.192 6.036 142.472 6.732C141.752 7.404 140.876 7.74 139.844 7.74ZM137.324 27.144C136.388 27.144 135.548 26.82 134.804 26.172C134.06 25.5 133.688 24.432 133.688 22.968C133.688 22.128 133.796 21.348 134.012 20.628C134.252 19.884 134.516 19.164 134.804 18.468C135.116 17.772 135.38 17.1 135.596 16.452C135.836 15.78 135.956 15.12 135.956 14.472C135.956 13.896 135.86 13.488 135.668 13.248C135.476 12.984 135.248 12.852 134.984 12.852C134.576 12.852 134.18 13.116 133.796 13.644L133.544 13.5C133.64 12.54 133.94 11.724 134.444 11.052C134.972 10.356 135.608 9.816 136.352 9.432C137.12 9.048 137.876 8.856 138.62 8.856C139.532 8.856 140.324 9.156 140.996 9.756C141.668 10.332 142.004 11.28 142.004 12.6C142.004 13.392 141.884 14.232 141.644 15.12C141.428 15.984 141.164 16.848 140.852 17.712C140.564 18.576 140.3 19.38 140.06 20.124C139.844 20.868 139.736 21.504 139.736 22.032C139.736 22.488 139.82 22.812 139.988 23.004C140.18 23.196 140.384 23.292 140.6 23.292C140.816 23.292 141.02 23.232 141.212 23.112C141.428 22.968 141.584 22.812 141.68 22.644L141.932 22.716C141.932 23.604 141.692 24.384 141.212 25.056C140.756 25.704 140.18 26.22 139.484 26.604C138.788 26.964 138.068 27.144 137.324 27.144ZM157.747 27.18C156.907 27.18 156.175 26.904 155.551 26.352C154.927 25.8 154.615 24.9 154.615 23.652C154.615 23.532 154.615 23.412 154.615 23.292C154.615 23.172 154.627 23.052 154.651 22.932C153.931 24.372 153.115 25.44 152.203 26.136C151.315 26.808 150.415 27.144 149.503 27.144C148.663 27.144 147.871 26.856 147.127 26.28C146.383 25.68 145.783 24.804 145.327 23.652C144.871 22.5 144.643 21.108 144.643 19.476C144.643 17.796 144.871 16.296 145.327 14.976C145.807 13.656 146.431 12.54 147.199 11.628C147.967 10.716 148.807 10.032 149.719 9.576C150.631 9.096 151.519 8.856 152.383 8.856C153.343 8.856 154.207 9.156 154.975 9.756C155.743 10.332 156.271 11.256 156.559 12.528C156.631 12.12 156.679 11.748 156.703 11.412C156.751 11.076 156.775 10.848 156.775 10.728C156.799 10.08 157.123 9.6 157.747 9.288C158.395 8.976 159.103 8.82 159.871 8.82C160.543 8.82 161.179 8.952 161.779 9.216C162.379 9.48 162.787 9.924 163.003 10.548L163.075 10.764C162.787 11.412 162.499 12.192 162.211 13.104C161.923 14.016 161.659 14.976 161.419 15.984C161.179 16.968 160.987 17.94 160.843 18.9C160.699 19.836 160.627 20.664 160.627 21.384C160.627 22.176 160.711 22.728 160.879 23.04C161.047 23.328 161.251 23.472 161.491 23.472C161.899 23.472 162.271 23.184 162.607 22.608L162.895 22.752C162.895 23.568 162.631 24.312 162.103 24.984C161.575 25.656 160.915 26.196 160.123 26.604C159.331 26.988 158.539 27.18 157.747 27.18ZM151.879 22.608C152.503 22.608 153.187 22.056 153.931 20.952C154.699 19.824 155.359 18.216 155.911 16.128C155.959 15.912 156.007 15.708 156.055 15.516C156.103 15.3 156.139 15.096 156.163 14.904C155.779 14.016 155.371 13.392 154.939 13.032C154.531 12.648 154.123 12.456 153.715 12.456C153.115 12.456 152.551 12.78 152.023 13.428C151.519 14.052 151.099 14.844 150.763 15.804C150.451 16.764 150.295 17.724 150.295 18.684C150.295 20.004 150.439 20.988 150.727 21.636C151.039 22.284 151.423 22.608 151.879 22.608Z" fill="#05445E"/>
</svg>
